<svg width="167" height="214" viewBox="0 0 167 214" fill="none" xmlns="http://www.w3.org/2000/svg">
<g clip-path="url(#clip0_1_1315)">
<path d="M154.534 82.4613C156.959 75.4178 163.359 63.8443 165.594 59.8696C169.086 53.4106 161.752 48.4422 155.791 50.678C155.031 42.2609 150.692 34.8521 143.913 30.512C144.366 10.7114 122.114 -3.28785 104.67 6.07909C94.3406 -2.65949 77.9772 -1.87039 68.6122 7.87649C54.3235 1.11067 36.2216 9.39625 31.8677 24.623C14.1019 31.4473 10.2448 57.5023 23.9783 70.7417C22.8679 72.8313 21.8598 74.9941 20.9832 77.186C14.4233 77.2737 8.84223 81.643 7.04518 87.7658C-4.92049 94.1517 0.704399 113.222 14.2626 112.053C15.1976 112.798 16.2203 113.426 17.3161 113.923C19.2885 124.737 23.9199 134.834 30.7136 143.354C29.0042 144.42 27.4847 145.721 26.2283 147.212C-6.00164 142.945 -5.81171 190.904 26.2429 186.55C31.4879 192.716 40.7507 195.215 48.3772 192.512C54.3965 197.948 63.9515 199.205 71.1835 195.493C77.8019 200.213 87.3715 200.213 93.9899 195.493C101.178 199.234 110.908 197.933 116.855 192.468C124.525 195.274 133.656 192.833 138.872 186.535C170.971 191.021 171.058 142.784 138.931 147.226C137.66 145.736 136.14 144.42 134.416 143.354C135.95 141.439 137.397 139.423 138.726 137.319C140.713 136.734 142.554 135.726 144.103 134.352C157.938 135.17 162.76 115.604 150.4 109.758C149.961 108.75 149.406 107.786 148.763 106.894C149.289 100.172 148.763 93.4503 147.258 86.9329C150.385 87.2544 153.526 85.6031 154.505 82.4905L154.534 82.4613Z" fill="#12B8D7"/>
<path d="M148.383 84.3901C151.086 84.4632 152.182 81.979 152.825 79.7578C155.703 68.6958 175.354 48.5298 153.38 53.5567C153.453 44.3213 148.88 36.1087 141.37 31.9002C142.846 12.5672 120.726 -1.12521 104.319 9.08929C94.5597 -0.350719 77.9042 0.496836 69.182 10.9305C55.653 3.31715 37.4927 11.3251 33.9424 26.508C16.235 32.2948 12.8746 58.3936 27.1195 70.2594C25.3809 73.3135 23.8906 76.4991 22.678 79.787C16.3664 78.9687 10.4055 83.3234 9.20749 89.5047C-1.94002 94.1955 3.1443 111.527 15.0808 109.422C16.3518 110.635 17.8859 111.541 19.5514 112.082C21.4654 124.035 26.725 135.141 34.6729 144.143C31.5756 145.443 28.975 147.475 27.2071 150.061C-2.88967 143.836 -2.87506 189.911 27.2218 183.656C31.8093 190.349 41.6127 192.965 48.9908 189.516C54.4258 195.566 64.5944 196.867 71.3881 192.439C77.6266 197.816 87.6053 197.802 93.8292 192.439C100.681 196.896 110.865 195.537 116.27 189.472C123.707 193.009 133.306 190.451 137.937 183.642C148.646 187.558 161.883 177.621 160.729 165.989C160.787 155.132 148.091 146.452 137.981 150.061C136.213 147.475 133.598 145.414 130.471 144.128C132.94 141.337 135.176 138.327 137.148 135.097C139.471 134.6 141.575 133.431 143.211 131.707C155.206 133.738 159.808 115.677 148.471 111.6C147.945 110.153 147.185 108.794 146.206 107.596C146.922 99.763 146.177 91.9305 144.044 84.4194C145.534 84.3755 146.908 84.3609 148.383 84.3755V84.3901Z" fill="white"/>
<path d="M82.5503 161.81C115.641 161.81 142.466 134.979 142.466 101.882C142.466 68.7846 115.641 41.954 82.5503 41.954C49.4596 41.954 22.6343 68.7846 22.6343 101.882C22.6343 134.979 49.4596 161.81 82.5503 161.81Z" fill="url(#paint0_linear_1_1315)"/>
<path d="M145.345 114.888C145.345 114.888 145.228 114.888 145.169 114.888C144.556 110.562 141.108 107.04 136.564 106.544C132.488 106.091 128.718 108.224 126.892 111.644C125.65 110.051 123.809 108.94 121.632 108.706C117.395 108.239 113.582 111.307 113.115 115.545C113.056 116.057 113.056 116.568 113.1 117.08C110.543 117.27 108.41 119.257 108.118 121.887C107.797 124.854 109.93 127.528 112.91 127.864C114.094 127.995 115.233 127.718 116.197 127.163C117.191 129.807 119.587 131.809 122.582 132.131C125.285 132.423 127.798 131.298 129.405 129.34C130.588 130.436 132.108 131.196 133.832 131.386C137.148 131.751 140.187 129.954 141.59 127.133C142.291 127.499 143.065 127.762 143.913 127.849C147.492 128.244 150.692 125.657 151.086 122.092C151.481 118.526 148.895 115.311 145.33 114.917L145.345 114.888Z" fill="#DFF2FC"/>
<path d="M146.864 123.553C145.432 123.553 144.103 123.086 143.022 122.296C140.889 124.547 137.864 125.964 134.519 125.964C131.611 125.964 128.952 124.898 126.892 123.129C125.387 124.445 123.415 125.263 121.253 125.263C119.485 125.263 117.848 124.722 116.49 123.816C115.905 123.992 115.277 124.094 114.634 124.094C111.946 124.094 109.637 122.457 108.644 120.134C108.396 120.66 108.22 121.244 108.147 121.858C107.826 124.824 109.959 127.499 112.939 127.835C114.123 127.966 115.262 127.689 116.227 127.133C117.22 129.778 119.616 131.78 122.611 132.102C125.314 132.394 127.827 131.269 129.434 129.311C130.618 130.407 132.137 131.166 133.861 131.356C137.178 131.722 140.216 129.924 141.619 127.104C142.32 127.469 143.095 127.732 143.942 127.82C147.521 128.215 150.721 125.628 151.116 122.063C151.116 122.033 151.116 122.004 151.116 121.96C149.976 122.939 148.486 123.553 146.864 123.553Z" fill="#C7E8FA"/>
<path d="M44.9585 91.4045C44.9585 91.4045 44.8416 91.4045 44.7832 91.4045C44.1696 87.079 40.7216 83.5573 36.1778 83.0604C32.7445 82.6805 29.5302 84.1418 27.4994 86.6552C26.1699 85.0478 24.256 83.9372 22.0353 83.7034C17.4915 83.2066 13.4007 86.4799 12.9039 91.0245C12.8455 91.5652 12.8455 92.0913 12.8893 92.6173C9.79199 92.8073 7.17678 95.2038 6.82613 98.4041C6.43166 101.984 9.01765 105.185 12.5825 105.579C13.9413 105.725 15.2562 105.448 16.3811 104.834C17.5646 106.88 19.683 108.356 22.2106 108.633C24.9134 108.925 27.4264 107.8 29.0335 105.842C30.2169 106.938 31.7364 107.698 33.4604 107.888C36.7768 108.253 39.8158 106.456 41.2183 103.636C41.9196 104.001 42.6939 104.264 43.5413 104.352C47.1208 104.746 50.3204 102.16 50.7149 98.5941C51.1094 95.0285 48.5234 91.8136 44.9585 91.4191V91.4045Z" fill="#DFF2FC"/>
<path d="M46.6825 100.947C44.7248 100.947 42.9277 100.201 41.5836 98.9886C40.2248 101.122 37.8434 102.554 35.1259 102.554C32.9344 102.554 30.9766 101.634 29.5741 100.158C27.7478 101.517 25.4979 102.32 23.058 102.32C20.1944 102.32 17.5938 101.21 15.6507 99.4124C14.5257 101.283 12.4803 102.54 10.1426 102.54C9.19299 102.54 8.28716 102.32 7.46899 101.955C8.41865 103.884 10.3034 105.301 12.5971 105.55C13.9559 105.696 15.2708 105.418 16.3958 104.805C17.5792 106.85 19.6977 108.326 22.2252 108.604C24.9281 108.896 27.441 107.771 29.0481 105.813C30.2315 106.909 31.751 107.669 33.475 107.859C36.7915 108.224 39.8304 106.427 41.2329 103.606C41.9342 103.972 42.7086 104.235 43.5559 104.322C46.6387 104.658 49.4584 102.788 50.4227 99.9677C49.3269 100.581 48.0559 100.932 46.7117 100.932L46.6825 100.947Z" fill="#C7E8FA"/>
<path d="M125.65 11.4859C115.087 6.59052 102.347 11.6174 97.2042 22.7233C91.9738 34.0338 97.4818 47.2585 107.037 51.6863C116.27 55.9533 129.916 52.4754 135.483 40.4489C140.625 29.343 136.213 16.3812 125.65 11.4859Z" fill="#8F82BC"/>
<path d="M98.1247 20.9405C97.7886 21.5104 97.4818 22.1095 97.2042 22.7233C91.9738 34.0338 97.4818 47.2585 107.037 51.6863C116.27 55.9533 129.916 52.4754 135.483 40.4489C136.213 38.8707 136.754 37.2486 137.104 35.612C135.906 35.8604 110.09 46.0895 98.1393 20.9405H98.1247Z" fill="#7C70A4"/>
<path d="M114.05 20.9259C111.887 22.2411 109.345 22.0365 108.381 20.4583C107.417 18.8801 108.396 16.5274 110.558 15.2122C112.72 13.897 115.262 14.1016 116.227 15.6798C117.191 17.258 116.212 19.6107 114.05 20.9259Z" fill="#C7C0DF"/>
<path d="M50.0281 13.4879C39.2458 17.901 34.2784 30.6581 38.9098 41.9832C43.6289 53.5129 57.0848 58.4667 66.8297 54.4774C76.2386 50.6195 82.9593 38.2423 77.948 25.982C73.3166 14.6569 60.8104 9.07472 50.0281 13.4879Z" fill="#E95383"/>
<path d="M53.4176 23.9654C51.8251 26.1719 49.2391 27.0341 47.6174 25.8651C46.0102 24.7106 45.9956 21.978 47.5881 19.7714C49.1806 17.5649 51.7666 16.7027 53.3883 17.8717C54.9955 19.0262 55.0101 21.7588 53.4176 23.9654Z" fill="#F19DB5"/>
<path d="M77.9479 25.982C77.4658 24.7837 76.8814 23.6585 76.2239 22.6064C66.7712 33.6684 53.6659 38.9145 39.8448 34.1068C38.8367 33.5077 37.9601 33.0255 37.2004 32.6309C37.1127 35.7289 37.6679 38.8999 38.9243 41.9832C43.6434 53.5129 57.0993 58.4667 66.8443 54.4774C76.2532 50.6195 82.9738 38.2423 77.9625 25.982H77.9479Z" fill="#D24A77"/>
<path d="M89.1979 106.383C88.7888 105.813 77.8751 84.7993 77.3053 83.7764L76.6917 84.1125C77.1884 85.3108 87.4593 105.024 88.5112 106.544L89.2125 106.368L89.1979 106.383Z" fill="#9FA0A0"/>
<path d="M91.3748 105.915C92.193 104.264 100.024 86.1876 100.506 84.814L99.8633 84.5217C99.4834 85.3839 90.8927 105.214 90.5566 105.988L91.3748 105.901V105.915Z" fill="#9FA0A0"/>
<path d="M88.5549 106.514C87.0208 105.448 61.7746 81.073 54.1919 73.562L53.6514 74.0442C60.9564 81.3361 84.318 103.709 87.7221 106.66L88.5549 106.5V106.514Z" fill="#9FA0A0"/>
<path d="M87.8536 53.6298C88.4088 65.3348 90.1912 104.848 90.3227 106.237L89.6214 106.295C89.49 104.907 87.7075 65.4079 87.1523 53.6736L87.8536 53.6152V53.6298Z" fill="#9FA0A0"/>
<path d="M92.3389 105.711C94.9542 102.364 109.593 82.2567 114.926 74.8771L114.356 74.468C108.746 82.2129 92.7334 104.279 91.3455 105.901L92.3389 105.711Z" fill="#9FA0A0"/>
<path d="M87.6345 6.41516C75.9902 6.51745 66.6398 16.5274 66.742 28.7585C66.8589 41.2234 77.5097 50.8095 88.029 50.7218C98.1976 50.6341 109.038 41.6325 108.921 28.3785C108.819 16.1474 99.2787 6.31287 87.6345 6.41516Z" fill="#F08300"/>
<path d="M62.1984 43.3715C57.5962 31.988 45.2945 26.2304 34.746 30.4974C24.1829 34.7644 19.3616 47.4631 23.9638 58.8467C28.6536 70.4348 41.6274 75.6809 51.4161 71.7207C61.6286 67.5853 66.5668 54.1851 62.1984 43.3715Z" fill="#00AC97"/>
<path d="M62.1985 43.3715C61.8917 42.6116 61.541 41.8663 61.1758 41.1649C51.7669 42.5532 43.9067 51.1602 42.7963 62.7337C33.8987 64.5019 26.5791 61.1555 22.7512 54.8865C23.0434 56.2163 23.4379 57.5315 23.9639 58.8467C28.6537 70.4348 41.6275 75.6809 51.4162 71.7207C61.6287 67.5852 66.5669 54.1851 62.1985 43.3715Z" fill="#009683"/>
<path d="M67.1221 32.5579C69.0944 43.1085 78.6056 50.7949 88.0291 50.7072C96.8098 50.6342 106.087 43.8976 108.381 33.5369C94.6767 42.0709 79.1024 42.9477 67.1221 32.5579Z" fill="#D07100"/>
<path d="M147.916 62.1346C142.875 74.8479 130.092 78.735 121.209 75.2278C112.165 71.6476 106.043 59.1828 110.704 47.4047C115.175 36.1088 127.126 30.249 137.411 34.3114C147.682 38.3738 152.387 50.8387 147.916 62.1346Z" fill="#00A0CA"/>
<path d="M128.616 59.0366C126.585 51.6425 122.509 45.0812 113.699 41.9979C112.516 43.6199 111.493 45.4173 110.719 47.3901C106.058 59.1682 112.18 71.6331 121.223 75.2132C130.106 78.735 142.89 74.8479 147.931 62.12C149.202 58.9051 149.728 55.6026 149.596 52.4316C147.638 57.7799 135.015 60.8486 128.616 59.022V59.0366Z" fill="#008CB0"/>
<path d="M33.5042 36.2549C31.8241 35.3343 29.5157 36.3134 28.3615 38.4323C27.2073 40.5511 27.6456 43.0207 29.3257 43.9268C31.0059 44.8474 33.3143 43.8683 34.4685 41.7494C35.6227 39.6305 35.1844 37.1609 33.5042 36.2549Z" fill="#A2D7D4"/>
<path d="M127.798 41.5594C126.351 43.0061 124.204 43.1961 123.006 41.9978C121.808 40.7996 121.998 38.6514 123.444 37.2048C124.89 35.7581 127.038 35.5681 128.236 36.7664C129.434 37.9646 129.244 40.1127 127.798 41.5594Z" fill="#7ECEF4"/>
<path d="M87.3863 50.5172C86.7288 51.1163 85.5454 52.6653 85.1655 53.4983C86.2175 53.8928 88.9788 53.8198 89.9723 53.2937C89.8115 52.9722 87.883 50.9556 87.3863 50.5172Z" fill="#CA4684"/>
<path d="M116.504 72.1737C115.613 72.2322 113.728 72.6852 112.896 73.0943C113.451 74.0588 115.657 75.7393 116.767 75.9585C116.855 75.6078 116.621 72.8313 116.504 72.1737Z" fill="#0099CE"/>
<path d="M51.6645 71.5161C51.46 72.3783 51.197 74.6871 51.3431 75.5931C52.4242 75.0525 55.0102 73.2697 55.5362 72.276C55.2148 72.1006 52.322 71.6038 51.6645 71.5307V71.5161Z" fill="#009683"/>
<path d="M101.09 81.2776C99.9363 81.643 97.9201 83.3527 97.4233 84.1126C98.6214 84.4341 102.683 85.457 103.165 85.4862C103.077 84.9017 101.66 81.8914 101.09 81.2776Z" fill="#C92F19"/>
<path d="M81.7467 19.0408C80.2565 21.3204 77.6997 22.2849 76.0342 21.1889C74.3833 20.0929 74.2372 17.3749 75.742 15.0953C77.2322 12.8157 79.789 11.8512 81.4545 12.9472C83.1055 14.0432 83.2516 16.7612 81.7467 19.0408Z" fill="#F9C385"/>
<path d="M111.098 72.013C112.209 73.8688 118.871 84.0249 120.639 87.4151C116.475 87.9996 111.975 88.9641 108.118 89.9578C109.886 92.7342 114.459 99.1932 114.459 99.1932C111.844 99.7338 108.337 100.479 106.262 101.107C107.709 103.168 109.447 105.404 111.04 107.888C107.285 108.809 105.824 109.174 103.472 109.89L104.568 112.871C107.986 112.243 112.136 111.585 117.498 110.664C115.496 107.566 114.4 105.711 113.261 103.84C117.352 103.212 119.324 102.963 122.772 102.364C121.691 100.289 119.733 96.8113 118.433 94.5901L131.436 92.5443C130.033 89.6363 126.03 82.1106 126.03 82.1106C131.772 81.1899 140.129 80.357 148.544 80.4301C150.852 73.4012 158.114 60.191 160.13 56.6401C143.095 58.5252 121.559 64.8234 111.084 71.9984L111.098 72.013Z" fill="#FFE100"/>
<path d="M113.275 103.826C117.337 103.197 119.353 102.949 122.787 102.35C122.538 101.897 122.261 101.356 121.954 100.786C119.163 101.502 113.158 103.256 113.275 103.811V103.826Z" fill="#FABE00"/>
<path d="M118.447 94.5901L131.45 92.5443C131.231 92.1059 131.085 91.799 130.778 91.1852C123.634 92.0766 119.134 93.4795 118.447 94.5755V94.5901Z" fill="#FABE00"/>
<path d="M126.044 82.1105C131.786 81.1899 140.143 80.357 148.559 80.43C148.778 79.7725 149.041 79.071 149.333 78.3112C126.804 79.6263 126.512 81.8037 126.044 82.1105Z" fill="#FABE00"/>
<path d="M114.021 101.809C114.59 101.297 115.306 100.611 115.832 99.9384C114.824 99.8215 113.495 99.7192 112.063 99.7192C109.974 100.172 107.767 100.669 106.277 101.122C107.724 103.183 109.462 105.418 111.055 107.903C107.3 108.823 105.225 109.393 103.487 109.905C99.6004 111.03 101.237 113.908 104.582 112.886C108.001 112.257 112.15 111.6 117.512 110.679C115.511 107.581 114.415 105.725 113.275 103.855C113.714 103.782 114.108 103.723 114.503 103.665C115.277 103.27 115.876 102.876 116.84 102.145C115.701 101.97 114.795 101.867 114.021 101.824V101.809Z" fill="#763B00"/>
<path d="M104.568 112.856C107.987 112.228 112.136 111.57 117.498 110.65C117.22 110.226 116.957 109.817 116.723 109.422C113.699 110.299 106.087 111.877 104.407 112.374C102.332 112.856 101.953 113.324 104.582 112.856H104.568Z" fill="#542400"/>
<path d="M113.1 99.4854C113.874 99.5146 114.78 99.5877 115.671 99.6169C116.417 99.6461 116.49 99.7923 116.037 100.26C115.598 100.698 115.175 101.151 114.736 101.575C115.394 101.648 116.081 101.692 116.767 101.78C117.395 101.867 117.41 101.999 116.943 102.35C116.285 102.832 115.555 103.226 114.941 103.548C114.284 103.665 113.904 103.665 113.261 103.811C113.991 103.372 114.62 102.978 115.496 102.364C115.102 102.306 114.824 102.276 114.532 102.247C113.275 102.116 113.29 101.955 114.167 101.122C114.444 100.859 114.751 100.552 115.014 100.245C113.378 100.128 111.814 100.07 110.587 100.011L113.085 99.4562L113.1 99.4854Z" fill="#763B00"/>
<path d="M117.206 102.16C115.072 102.832 113.509 103.416 113.275 103.84C113.524 103.796 114.78 103.621 114.941 103.592C115.686 103.256 117.103 102.335 117.206 102.174V102.16Z" fill="#542400"/>
<path d="M121.603 131.663C118.316 128.58 115.101 122.72 113.246 121.99C112.559 121.712 111.727 122.735 111.537 123.1L111.069 127.718C113.524 131.663 120.054 135.01 122.523 134.074C122.918 134.162 123.195 134.148 123.312 134.001C123.458 133.826 123.152 133.11 121.618 131.663H121.603Z" fill="#FFE100"/>
<path d="M112.077 125.657C112.004 126.593 111.814 127.499 111.508 128.346C114.181 131.956 119.981 134.849 122.407 134.118C119.85 134.264 113.305 128.01 112.092 125.657H112.077Z" fill="#FABE00"/>
<path d="M111.916 122.764C109.52 109.758 101.017 104.059 92.3389 105.608C86.0858 106.719 82.4625 107.727 80.0811 107.347L46.3025 122.749C45.2067 122.516 39.7572 123.582 38.9536 123.991C37.3173 122.837 37.2735 123.217 37.3903 124.766C36.0316 125.044 35.9001 125.263 36.7329 126.724C35.8271 126.724 35.6225 127.046 36.4553 128.054C35.8709 128.478 36.0316 128.843 37.142 129.428C43.8334 132.686 50.744 134.162 58.8526 132.365C62.3444 133.841 67.2388 135.039 71.7095 135.828C81.0599 137.479 90.352 135.2 93.7853 135.901C104.202 138.035 113.597 131.868 111.916 122.764Z" fill="#FFE100"/>
<path d="M55.7846 130.83C55.8722 130.903 56.0329 130.903 56.1206 130.977C51.2262 132.116 44.1988 131.064 39.655 129.325C38.3985 128.843 37.1859 127.952 36.3824 126.724C35.798 126.812 35.7395 127.163 36.4408 128.039C35.8564 128.463 36.0171 128.828 37.1275 129.413C43.8189 132.672 50.7295 134.148 58.8381 132.35C59.5686 132.657 60.3575 132.949 61.1903 133.242L62.9874 131.006C61.0004 131.24 58.429 131.093 56.2667 130.45C55.7115 130.29 55.2878 130.48 55.7554 130.845L55.7846 130.83Z" fill="#FABE00"/>
<path d="M96.0353 113.47C97.5839 113.207 98.3729 107.186 96.5759 105.433C95.1879 105.301 93.7707 105.345 92.3535 105.608C92.0613 105.652 91.7837 105.711 91.5208 105.754C92.8064 106.149 94.5158 113.748 96.0499 113.47H96.0353Z" fill="#763B00"/>
<path d="M86.9771 114.493C88.3943 114.347 88.5696 109.247 87.2547 106.573C85.034 107.011 83.2807 107.318 81.8782 107.406C83.5437 108.779 84.9025 114.698 86.9771 114.493Z" fill="#763B00"/>
<path d="M54.6743 97.2643C63.8641 83.1481 62.4761 71.8961 61.205 71.4285C59.9339 70.9608 48.1144 83.4111 48.3627 100.713C48.392 102.101 52.5266 99.4124 54.6889 97.2643H54.6743Z" fill="#FFE100"/>
<path d="M61.8477 79.3926C60.3867 85.7346 55.5653 94.2686 51.9858 99.4855C52.9501 98.7987 53.929 97.9949 54.6741 97.2497C59.2178 90.2793 61.1756 84.0103 61.833 79.3926H61.8477Z" fill="#FABE00"/>
<path d="M75.3621 100.64C91.8569 96.2998 98.7967 85.2524 98.4314 84.171C98.0808 83.0896 82.6525 83.4111 69.6495 97.5273C68.6998 98.4625 73.0244 101.137 75.3474 100.64H75.3621Z" fill="#FFE100"/>
<path d="M75.3621 100.64C83.2224 98.5648 88.9057 94.9846 92.6751 91.6675C85.7791 95.9345 77.4368 99.0617 72.6885 100.275C73.6235 100.625 74.6024 100.801 75.3621 100.64Z" fill="#FABE00"/>
<path d="M81.2353 110.767C81.9074 119.798 73.6527 127.776 62.7973 128.58C51.942 129.384 42.6354 123.246 41.9926 114.683C41.2328 104.41 50.5833 96.5921 60.3575 95.8614C71.2128 95.0577 80.5632 101.721 81.2353 110.752V110.767Z" fill="#FFE100"/>
<path d="M61.2049 71.4285C60.4452 71.1508 55.9453 75.4617 52.4827 82.6367C54.7034 80.5908 60.0069 78.9688 61.8477 79.3926C62.5344 74.658 61.8477 71.6623 61.2049 71.4285Z" fill="#0D131A"/>
<path d="M56.7489 116.948C55.2733 117.065 54.5428 117.766 53.7246 118.029C54.4697 122.457 57.1434 125.54 58.5752 125.438C60.0946 125.321 62.14 121.58 62.4468 118.132C62.3738 118.132 62.3007 118.146 62.2423 118.161C60.1677 118.322 58.5021 116.831 56.7489 116.963V116.948Z" fill="#B60005"/>
<path d="M58.5751 125.438C59.627 125.365 60.9127 123.568 61.7163 121.346C60.416 120.762 58.8965 120.733 57.8592 121.142C57.0556 121.463 56.1644 122.252 55.7407 123.202C56.7196 124.649 57.83 125.497 58.5751 125.438Z" fill="#E60012"/>
<path d="M98.4314 84.171C98.2707 83.6887 95.1734 83.4842 90.6442 84.624C91.3309 87.1666 90.0306 91.6236 87.6492 95.3792C95.3487 90.5715 98.6798 84.9162 98.4314 84.171Z" fill="#0D131A"/>
<path d="M66.7714 128.492C64.0686 129.661 57.5525 134.337 55.1126 137.304C54.6597 136.866 54.2067 136.676 54.0022 136.822C53.6516 137.041 54.0022 139.247 53.5931 139.759C52.4535 140.753 52.4974 141.074 54.0606 141.381C59.3787 144.055 69.3282 142.316 79.7452 134.834L66.7714 128.492Z" fill="#FFE100"/>
<path d="M111.917 122.764C111.858 122.443 111.8 122.136 111.727 121.814C110.66 130.348 104.319 133.315 97.6133 134.031C95.8455 134.221 93.1426 133.695 90.7319 133.68C87.8683 133.68 82.7256 134.191 80.5341 134.045C78.927 133.943 77.3637 134.396 75.9757 135.302C71.8411 138.005 66.6106 140.095 61.4241 140.899C60.1676 141.103 60.2845 140.65 59.8754 140.051C59.5394 139.554 59.291 139.481 58.9549 139.7C58.7796 139.817 58.6481 139.744 58.5459 139.613C58.0783 139.014 57.7131 138.999 57.4355 139.145C57.2017 139.277 57.1141 139.218 56.9534 139.043C56.369 138.341 56.0329 138.195 55.7553 138.531C55.6677 138.634 55.5216 138.619 55.3463 138.473C54.8203 138.035 54.5427 137.903 54.3966 137.962C54.2213 138.035 53.9583 138.239 53.7684 138.809C53.7684 139.057 53.7245 139.54 53.5638 139.759C52.4242 140.753 52.4681 141.074 54.0313 141.381C58.9549 143.865 67.8525 142.55 77.4075 136.398C84.6103 136.661 91.0387 135.331 93.7708 135.886C104.188 138.02 113.582 131.853 111.902 122.749L111.917 122.764Z" fill="#FABE00"/>
<path d="M57.6984 128.434C57.6984 127.952 61.161 128.025 61.1756 128.419C61.1756 128.565 60.2844 129.121 59.4516 129.15C58.575 129.194 57.6838 128.653 57.6984 128.434Z" fill="#FABE00"/>
<path d="M38.3987 127.367C36.9523 127.002 37.0545 125.993 38.0626 125.555C38.6762 125.292 38.7639 125.526 38.2672 125.92C37.785 126.3 37.785 126.578 38.574 127.002C39.0999 127.279 39.0853 127.542 38.3987 127.367Z" fill="#F6AB00"/>
<path d="M56.6612 115.165C57.0118 115.136 57.4355 114.844 57.4209 114.668C57.4063 114.493 55.9745 114.566 55.9891 114.741C56.0037 114.917 56.369 115.194 56.6612 115.165Z" fill="#0D131A"/>
<path d="M62.2713 118.497C59.9483 118.672 58.575 117.167 56.7779 117.299C55.2147 117.416 54.6303 118.365 53.33 118.468C52.6433 118.512 51.942 117.956 51.7375 117.576C51.2845 116.773 51.679 116.714 52.1027 117.269C52.3657 117.606 52.8478 117.796 53.2715 117.766C54.4257 117.679 54.8786 116.743 56.7195 116.597C58.648 116.451 60.2698 117.942 62.2129 117.796C62.9288 117.737 63.8638 117.357 64.3898 116.875C65.2518 116.086 65.6025 116.217 64.8135 117.284C64.5359 117.664 63.5278 118.409 62.2567 118.497H62.2713Z" fill="#0D131A"/>
<path d="M48.5525 118.862C47.223 116.334 45.1922 114.771 44.0088 115.37C42.8399 115.954 42.9714 118.482 44.3156 121.01C45.1191 122.53 47.5298 125.175 48.8593 124.503C50.0281 123.904 49.8966 121.39 48.5525 118.862Z" fill="#E60012"/>
<path d="M77.3199 114.186C75.6251 113.28 73.1122 114.654 71.7242 117.255C70.3363 119.856 70.5846 122.705 72.294 123.611C73.9888 124.518 76.5017 123.144 77.8897 120.543C79.2776 117.942 79.0293 115.092 77.3199 114.186Z" fill="#E60012"/>
<path d="M49.2976 107.347C47.3252 107.391 45.9373 109.218 46.0103 111.278C46.0834 113.47 47.3837 114.8 49.3414 114.756C51.1239 114.712 52.4242 113.119 52.4095 111.132C52.3803 108.75 51.1239 107.318 49.3122 107.362L49.2976 107.347Z" fill="#0D131A"/>
<path d="M49.6921 107.771C48.7863 107.742 48.158 108.516 48.1142 109.188C48.0558 110.051 48.6694 110.708 49.4875 110.737C50.3349 110.767 51.0362 110.138 51.0654 109.349C51.0801 108.721 50.6564 107.8 49.6921 107.771Z" fill="white"/>
<path d="M68.5685 106.617C66.3478 106.704 64.9452 108.458 65.0475 110.767C65.1351 112.871 66.8445 114.435 68.7438 114.361C70.7308 114.274 72.5717 112.769 72.4694 110.518C72.3817 108.268 70.7016 106.544 68.5685 106.631V106.617Z" fill="#0D131A"/>
<path d="M68.2908 107.011C67.5749 107.04 66.8444 107.713 66.8737 108.589C66.9175 109.51 67.6626 110.021 68.4077 109.992C69.2697 109.963 69.8687 109.364 69.8249 108.443C69.7957 107.61 69.0798 106.982 68.2908 107.011Z" fill="white"/>
<path d="M111.493 128.346C112.53 127.265 112.589 124.211 111.887 122.632C111.917 122.749 112.18 126.563 111.493 128.346Z" fill="#F6AB00"/>
<path d="M58.8526 132.35C58.4435 132.16 56.6172 131.181 56.1351 130.743C55.5653 130.217 55.3607 130.509 55.9013 131.035C56.6172 131.736 58.049 132.292 58.8526 132.35Z" fill="#F6AB00"/>
<path d="M122.509 134.074C121.501 133.826 119.032 132.452 118.214 131.473C117.761 130.933 118.038 130.772 118.506 131.21C119.368 132.029 120.829 133.125 122.509 134.074Z" fill="#F6AB00"/>
<path d="M69.9856 97.1766C70.5992 97.2058 71.2567 97.4104 71.5635 97.6734C71.9433 98.0095 71.7972 98.2433 71.3589 97.9511C71.2567 97.878 70.3508 97.3081 69.9856 97.1766Z" fill="#F6AB00"/>
<path d="M54.8204 97.045C54.3967 97.2058 53.1256 97.9803 52.8626 98.1264C52.2782 98.4479 52.1175 98.1849 52.6727 97.7757C53.184 97.3958 54.1045 97.045 54.8204 97.045Z" fill="#F6AB00"/>
<path d="M45.5429 122.72C47.2523 124.503 49.7799 125.891 52.4243 126.914C53.3886 127.279 53.3739 127.703 52.2636 127.352C50.3204 126.739 47.5299 125.497 45.5283 122.72H45.5429Z" fill="#F6AB00"/>
<path d="M48.3625 100.684C48.5817 100.201 49.2392 99.5585 49.6482 99.3831C50.145 99.1786 50.2619 99.4854 49.8236 99.7192C49.7213 99.7777 48.7716 100.333 48.3625 100.684Z" fill="#F6AB00"/>
<path d="M75.7712 100.523C75.6543 100.421 74.9677 100.055 74.6901 99.88C74.1933 99.5731 74.4417 99.427 74.8216 99.5439C75.0845 99.6316 75.5959 100.026 75.7712 100.523Z" fill="#F6AB00"/>
<path d="M80.5632 107.406C81.9804 109.539 82.0535 115.867 79.5844 119.841C77.5097 123.202 74.2078 125.643 70.5699 126.797C69.2988 127.206 69.1966 126.856 70.3654 126.33C74.3978 124.532 77.1883 122.063 78.8831 119.271C81.2499 115.355 81.396 109.948 80.5632 107.406Z" fill="#F6AB00"/>
<path d="M77.4221 136.398C78.0065 136.018 79.0292 134.966 79.1461 134.834C79.6282 134.279 79.9497 134.557 79.5114 135.053C79.1461 135.477 78.474 136.091 77.4221 136.398Z" fill="#F6AB00"/>
<path d="M55.1125 137.304C55.5654 137.421 55.4631 137.742 55.6823 137.421C56.2374 136.603 56.6319 136.544 57.2602 137.772C58.0345 137.07 58.4728 137.275 58.9403 138.429C59.5686 137.888 60.1822 137.888 60.226 138.692C60.2698 139.452 60.0507 139.437 59.8315 138.897C59.7731 138.736 59.6562 138.663 59.5101 138.678C59.4078 138.692 58.838 139.145 58.7212 139.131C58.5897 139.116 58.3997 137.976 57.9614 137.962C57.7569 137.962 57.3624 138.429 57.2309 138.415C57.0848 138.4 56.6465 137.304 56.1498 137.319C55.9599 137.319 55.6238 138.049 55.4923 138.064C55.4193 138.064 55.3608 137.552 55.0833 137.319L55.1125 137.304Z" fill="#F6AB00"/>
<path d="M60.0361 132.832C62.1254 131.269 64.6529 129.968 66.1578 129.194C67.2389 128.624 67.2535 128.302 65.8363 128.799C64.1416 129.398 61.1757 131.693 60.0361 132.832Z" fill="#F6AB00"/>
<path d="M125.869 62.9383C123.78 76.6307 110.923 83.0604 101.587 81.6283C89.7968 79.8309 81.9804 69.7479 83.9966 56.5378C85.8375 44.4528 96.7074 36.0795 108.279 37.8477C119.835 39.6159 127.725 50.8387 125.869 62.9383Z" fill="#E83820"/>
<path d="M91.3455 64.7211C92.9526 58.8467 90.9364 51.6863 87.4738 47.4339C85.7352 50.0935 84.5226 53.1768 83.9966 56.5378C81.9804 69.748 89.7968 79.8163 101.587 81.6284C110.908 83.0458 123.78 76.6307 125.869 62.9383C126.059 61.667 126.147 60.4249 126.132 59.1828C118.71 71.0339 99.1035 72.5098 91.3455 64.7211Z" fill="#C92F19"/>
<path d="M101.573 50.1081C99.7755 51.9055 97.1165 52.1539 95.6262 50.6634C94.136 49.1729 94.3698 46.4987 96.1668 44.7159C97.9639 42.9185 100.623 42.6701 102.113 44.1606C103.603 45.6511 103.37 48.3253 101.573 50.1081Z" fill="#F29A76"/>
<path d="M75.6397 81.1607C75.1721 81.9206 74.4855 83.7326 74.3394 84.6532C75.4497 84.7409 78.0942 83.8933 78.8977 83.1042C78.6493 82.8266 76.2387 81.4384 75.6397 81.1607Z" fill="#E4BC00"/>
<path d="M88.2921 52.5484C92.5144 64.648 85.7207 77.7851 75.8151 81.2484C67.0636 84.3025 52.9064 80.0647 48.1874 66.5623C44.0089 54.5796 49.59 41.7348 60.6644 37.8623C71.7389 33.9899 84.1136 40.5658 88.2921 52.5484Z" fill="#FDD000"/>
<path d="M69.4888 72.4806C59.627 72.919 49.3123 67.3807 46.8139 57.6776C46.7263 60.5856 47.15 63.5959 48.1873 66.5623C52.9064 80.0647 67.0635 84.3025 75.815 81.2484C82.9886 78.7496 88.5258 71.18 89.4462 62.6168C86.8602 69.1342 80.3587 71.9984 69.5034 72.4806H69.4888Z" fill="#E4BC00"/>
<path d="M60.8251 49.9035C59.4956 51.9201 57.0265 52.6507 55.3025 51.5109C53.5785 50.3857 53.2571 47.8284 54.5866 45.7972C55.9161 43.7806 58.3852 43.05 60.1092 44.1898C61.8332 45.315 62.1546 47.8723 60.8251 49.9035Z" fill="#FFF096"/>
<path d="M95.3487 120.338C94.8373 113.455 94.2529 108.589 92.4413 105.579C90.6588 105.901 88.9641 106.222 87.5469 106.5C89.154 109.174 89.6361 114.917 89.9722 120.689C90.3082 126.446 89.3877 134.206 87.766 135.989C89.9868 135.813 91.8276 135.667 93.1279 135.799C94.735 134.279 95.86 127.119 95.3487 120.338Z" fill="#F08300"/>
<path d="M88.818 133.724C88.5112 134.761 88.1606 135.565 87.7661 136.003C89.9868 135.828 91.8277 135.682 93.128 135.813C93.4933 135.463 93.8439 134.805 94.1507 133.914C93.0257 133.811 91.8569 133.695 90.7466 133.695C90.206 133.695 89.5485 133.709 88.8327 133.738L88.818 133.724Z" fill="#D07100"/>
<path d="M158.158 166.121C157.953 155.819 146.061 148.6 136.842 153.217C133.306 145.677 122.334 142.725 115.496 147.475C113.159 144.172 109.506 141.805 105.181 141.22C100.857 140.665 96.7076 141.98 93.5956 144.567C88.2337 138.21 76.8525 138.195 71.4906 144.567C65.3251 138.97 54.0753 140.46 49.5754 147.46C42.7379 142.725 31.7657 145.677 28.2447 153.203C18.7481 148.439 6.60709 156.242 6.9139 166.851C6.60709 177.46 18.7481 185.264 28.2593 180.485C31.7949 188.026 42.7525 190.977 49.6046 186.243C54.0899 193.242 65.3543 194.733 71.5052 189.136C74.2519 192.117 78.1966 193.988 82.565 193.988C86.9334 193.988 90.8636 192.132 93.6103 189.151C99.7757 194.748 111.026 193.257 115.525 186.257C118.959 188.42 123.24 189.195 127.447 188.069C131.67 186.93 134.971 184.109 136.856 180.515C146.63 185.425 159.049 177.007 158.158 166.121Z" fill="#EAF6FD"/>
<path d="M28.2446 180.5C31.7802 188.04 42.7378 190.992 49.5899 186.257C54.0752 193.257 65.3396 194.748 71.4905 189.151C74.2372 192.132 78.1819 194.002 82.5503 194.002C86.9188 194.002 90.8489 192.146 93.5956 189.165C99.761 194.762 111.011 193.272 115.511 186.272C118.944 188.435 123.225 189.209 127.433 188.084C131.655 186.944 134.957 184.124 136.841 180.529C146.616 185.439 159.034 177.022 158.143 166.135C158.128 165.098 157.982 164.104 157.734 163.14C153.687 155.672 142.715 152.721 135.833 158.785C131.348 152.019 120.288 150.923 114.546 156.651C109.711 150.163 98.6361 149.623 93.2011 155.614C88.0583 149.374 76.9839 149.374 71.8411 155.614C69.0798 152.823 65.1789 151.172 60.942 151.376C56.7197 151.595 52.9795 153.597 50.4958 156.651C44.754 150.923 33.7088 152.019 29.2235 158.785C22.2252 152.604 11.3115 155.804 7.27908 163.257C6.98688 164.411 6.85539 165.624 6.88461 166.881C6.57779 177.49 18.7188 185.293 28.23 180.515L28.2446 180.5Z" fill="#C7E8FA"/>
<path d="M158.128 166.135C157.12 176.189 144.453 182.75 135.76 176.423C133.642 179.769 130.179 182.254 125.957 182.955C121.749 183.656 117.658 182.458 114.59 179.974C109.974 186.667 98.8699 187.573 93.2158 181.713C88.073 187.996 76.9255 188.011 71.7973 181.713C66.1578 187.573 55.0542 186.667 50.4374 179.959C44.3157 185.351 33.2997 183.51 29.2673 176.423C20.735 182.619 7.99501 176.423 6.92847 166.311C6.92847 166.501 6.92847 166.676 6.92847 166.866C6.6801 175.152 14.0436 181.727 21.8016 181.932C23.9639 181.976 26.1408 181.537 28.2154 180.5C28.2154 180.5 28.2154 180.5 28.2154 180.515C28.2154 180.515 28.2446 180.515 28.2592 180.5C30.5822 185.439 36.0902 188.42 41.5544 188.537C44.3888 188.596 47.2085 187.865 49.5461 186.257C49.5461 186.257 49.5462 186.272 49.5608 186.287C49.5608 186.287 49.59 186.272 49.6046 186.257C52.2636 190.408 57.3041 192.614 62.2423 192.57C65.6319 192.526 68.963 191.431 71.4613 189.151C71.4613 189.151 71.4759 189.165 71.4905 189.18C71.4905 189.18 71.5051 189.165 71.5197 189.151C74.2664 192.132 78.182 193.988 82.5504 194.002C86.9042 194.002 90.8343 192.132 93.5664 189.165C93.5664 189.165 93.581 189.18 93.5956 189.195C93.5956 189.195 93.6102 189.18 93.6248 189.165C96.1232 191.43 99.4689 192.541 102.844 192.585C107.782 192.629 112.823 190.422 115.482 186.272C115.482 186.272 115.511 186.287 115.525 186.301C115.525 186.301 115.525 186.287 115.54 186.272C117.892 187.748 120.639 188.581 123.502 188.596C124.803 188.596 126.118 188.435 127.418 188.084C131.64 186.944 134.942 184.124 136.827 180.529C136.827 180.529 136.856 180.529 136.871 180.544C136.871 180.544 136.871 180.544 136.871 180.529C138.697 181.45 140.626 181.903 142.539 181.961C150.809 182.166 158.83 174.976 158.128 166.165V166.135Z" fill="#9FD9F6"/>
<path d="M113.027 182.882C112.983 182.224 112.677 181.815 112.428 181.581C112.253 181.421 112.004 181.26 111.654 181.172C111.756 180.88 111.785 180.544 111.727 180.193L111.668 178.995L111.639 178.805C111.537 178.279 111.274 177.957 111.04 177.753C111.128 177.519 111.172 177.241 111.157 176.964L111.084 175.634C111.069 175.342 110.996 175.064 110.865 174.816C111.157 174.45 111.303 173.968 111.274 173.471L111.201 172.127C111.172 171.586 110.953 171.104 110.573 170.753C110.193 170.402 109.696 170.227 109.141 170.271L100.156 170.724C99.5275 170.753 98.9723 170.972 98.534 171.352C98.4609 171.177 98.3586 171.031 98.271 170.928C98.0518 170.665 97.6281 170.359 96.9415 170.315L95.0568 170.212C94.6038 170.183 94.2532 170.3 94.0048 170.446C93.8149 170.373 93.5957 170.315 93.3182 170.3L91.4335 170.198C90.7614 170.154 90.3231 170.417 90.0747 170.651C89.9871 170.724 89.8994 170.826 89.8117 170.958C89.4903 170.68 89.0228 170.432 88.3215 170.402L83.3833 170.139C82.8281 170.11 82.3021 170.285 81.8931 170.651C81.484 171.016 81.2648 171.513 81.2356 172.068L81.1772 173.267C81.1479 173.836 81.3233 174.362 81.6885 174.757C82.0538 175.166 82.5359 175.385 83.1203 175.415L83.807 175.458C83.7193 175.59 83.617 175.707 83.5294 175.824C82.9888 176.481 82.2875 177.124 81.4694 177.723C81.3525 177.811 81.2648 177.928 81.1625 178.03C81.0603 177.797 80.9434 177.592 80.8119 177.46C81.0164 177.124 81.1772 176.628 81.1625 175.985L81.0749 172.58C81.0457 171.557 80.5781 170.972 80.1983 170.651C79.7015 170.256 79.0733 170.052 78.3866 170.096L69.1384 170.549C68.5979 170.578 68.1157 170.797 67.7797 171.177C67.6336 171.338 67.5313 171.513 67.4583 171.703C67.4144 171.644 67.3706 171.586 67.3268 171.542C67.0054 171.177 66.5378 170.972 66.0411 170.943L55.3319 170.315C54.6598 170.271 54.2215 170.549 53.9731 170.782C53.6079 171.104 53.4034 171.571 53.3741 172.083L53.2865 173.88C53.2573 174.406 53.418 174.889 53.7394 175.239C53.9731 175.502 54.3822 175.809 55.0689 175.853H55.215L55.1858 176.452H55.0105C54.3384 176.408 53.9147 176.671 53.6517 176.905C53.2865 177.227 53.0819 177.694 53.0527 178.206L52.965 180.003C52.9504 180.398 53.0381 180.763 53.2134 181.084C53.0089 181.172 52.8336 181.289 52.7167 181.406C52.4683 181.64 52.1615 182.049 52.1177 182.707L52.03 184.241C52.0008 184.752 52.1615 185.22 52.4683 185.571C52.8043 185.98 53.3011 186.199 53.8563 186.199L66.0265 186.608C66.5086 186.608 66.9323 186.447 67.2537 186.17C67.3268 186.272 67.3998 186.374 67.5021 186.462C67.8381 186.784 68.2618 186.944 68.7294 186.944C68.8024 186.944 68.8608 186.944 68.9339 186.944L81.0895 186.082C81.557 186.024 81.9515 185.834 82.2729 185.498C82.6089 185.132 82.7843 184.65 82.755 184.124L82.682 182.867C82.6528 182.341 82.4482 181.976 82.2437 181.727C82.3898 181.815 82.5505 181.888 82.7112 181.947C82.9888 182.02 83.3833 182.064 83.8216 181.917L83.7485 183.364C83.6901 184.402 84.406 185.191 85.4287 185.235L91.711 185.468L91.638 186.886C91.6088 187.397 91.7695 187.88 92.1055 188.245C92.4269 188.61 92.8945 188.829 93.4204 188.844L95.1882 188.932C95.1882 188.932 95.2613 188.932 95.2905 188.932C95.8019 188.932 96.2548 188.742 96.5762 188.406C96.8538 188.128 97.0291 187.777 97.1314 187.31C97.2337 186.74 97.2921 186.199 97.3505 185.673C97.4382 185.98 97.5989 186.243 97.8327 186.462C98.1687 186.784 98.5924 186.944 99.0599 186.944C99.133 186.944 99.1914 186.944 99.2645 186.944L111.42 186.082C111.888 186.024 112.282 185.834 112.603 185.498C112.94 185.132 113.115 184.65 113.086 184.124L113.027 182.867V182.882Z" fill="white"/>
<path d="M53.8416 184.913C53.6808 184.913 53.5494 184.869 53.4617 184.767C53.374 184.665 53.3302 184.533 53.3448 184.358L53.4325 182.823C53.4325 182.663 53.4909 182.531 53.5932 182.443C53.6955 182.356 53.8269 182.312 53.9877 182.327L66.0994 182.926C66.2601 182.926 66.3916 182.984 66.4793 183.086C66.567 183.189 66.6108 183.32 66.5962 183.481L66.5231 184.825C66.5231 184.986 66.4647 185.118 66.3624 185.191C66.2601 185.278 66.1287 185.322 65.9679 185.322L53.8416 184.913ZM54.7766 180.675C54.6159 180.675 54.4844 180.631 54.3967 180.529C54.3091 180.427 54.2653 180.295 54.2799 180.12L54.3675 178.323C54.3675 178.162 54.426 178.03 54.5282 177.943C54.6305 177.855 54.762 177.811 54.9227 177.826L56.4422 177.899L56.5736 174.611L55.0834 174.552C54.9227 174.552 54.7912 174.494 54.7035 174.392C54.6159 174.289 54.5721 174.158 54.5867 173.997L54.6743 172.2C54.6743 172.039 54.7328 171.907 54.835 171.82C54.9373 171.732 55.0688 171.688 55.2295 171.703L65.9241 172.331C66.0848 172.331 66.2163 172.39 66.304 172.492C66.3916 172.594 66.4355 172.726 66.4209 172.887L66.3332 174.494C66.3332 174.655 66.2748 174.786 66.1725 174.874C66.0702 174.962 65.9387 175.005 65.778 174.991L64.3316 174.932L64.0978 178.279L65.6027 178.352C65.7634 178.352 65.8949 178.41 65.9826 178.513C66.0702 178.615 66.114 178.746 66.0994 178.907L66.0118 180.515C66.0118 180.675 65.9533 180.807 65.8511 180.894C65.7488 180.982 65.6173 181.026 65.4566 181.026L54.7474 180.675H54.7766ZM59.2765 178.045L61.3365 178.147L61.5119 174.801L59.4372 174.713L59.2619 178.03L59.2765 178.045Z" fill="#00A0CA"/>
<path d="M68.8023 185.644C68.6416 185.658 68.5101 185.629 68.4078 185.527C68.3056 185.425 68.2617 185.308 68.2471 185.132L68.1741 183.686C68.1741 183.525 68.2033 183.393 68.291 183.291C68.3786 183.189 68.5101 183.145 68.6708 183.13L73.1853 182.896L73.0831 181.201L70.4533 181.421C69.6351 181.464 69.1968 181.084 69.153 180.266L68.9484 176.73C68.9338 176.321 69.0215 175.999 69.2406 175.78C69.4598 175.561 69.7374 175.444 70.1026 175.429L76.7356 175.064L76.6918 174.143L69.3283 174.523C69.1383 174.523 68.9922 174.479 68.8754 174.377C68.7585 174.275 68.7 174.129 68.6854 173.939L68.6124 172.565C68.6124 172.375 68.6562 172.229 68.7585 172.112C68.8607 171.995 69.0068 171.937 69.1968 171.922L78.4304 171.469C78.7956 171.454 79.1024 171.542 79.3362 171.732C79.57 171.922 79.7014 172.229 79.7161 172.638L79.8037 176.058C79.8037 176.452 79.7161 176.759 79.5261 176.978C79.3362 177.197 79.044 177.329 78.6203 177.358L72.0019 177.753L72.0604 178.746L79.3508 178.381C79.5407 178.352 79.6722 178.352 79.7745 178.381C79.8622 178.425 79.9206 178.527 79.9644 178.688L80.0375 179.974C80.1105 180.325 80.0083 180.544 79.7014 180.617L76.2242 180.924L76.2973 182.692L80.7826 182.443C80.9433 182.443 81.0748 182.473 81.1771 182.56C81.2793 182.648 81.3232 182.78 81.3378 182.94L81.3962 184.197C81.3962 184.358 81.367 184.489 81.2793 184.577C81.1917 184.665 81.0602 184.723 80.8995 184.752L68.8023 185.614V185.644Z" fill="#00A0CA"/>
<path d="M82.083 179.594C81.9807 179.462 81.9515 179.331 81.9953 179.185C82.0245 179.053 82.1122 178.936 82.2583 178.834C83.1787 178.162 83.9531 177.446 84.5667 176.701C85.1803 175.941 85.6332 175.122 85.8962 174.246L83.1933 174.099C82.9888 174.099 82.8135 174.012 82.6966 173.88C82.5797 173.749 82.5213 173.573 82.5359 173.354L82.5943 172.156C82.5943 171.951 82.682 171.776 82.8135 171.659C82.945 171.542 83.1203 171.484 83.3394 171.498L88.263 171.761C88.6283 171.776 88.8913 171.893 89.052 172.112C89.2127 172.331 89.2565 172.624 89.1689 172.974C89.0374 173.573 88.8621 174.172 88.6283 174.757C88.3945 175.342 88.1023 175.941 87.7663 176.511C88.0877 176.847 88.4091 177.139 88.7306 177.402C89.052 177.665 89.388 177.899 89.7241 178.133C90.0601 178.381 90.1185 178.644 89.8702 178.936L88.8913 180.164C88.7598 180.325 88.6283 180.412 88.4822 180.412C88.3361 180.412 88.2046 180.368 88.0877 180.266C87.7955 180.018 87.5033 179.725 87.2257 179.419C86.9335 179.097 86.6559 178.746 86.3637 178.352C85.9693 178.776 85.531 179.185 85.0634 179.565C84.5959 179.945 84.0992 180.281 83.5732 180.573C83.3833 180.675 83.2226 180.719 83.0618 180.675C82.9011 180.631 82.7696 180.544 82.6528 180.412L82.0684 179.609L82.083 179.594ZM85.5017 183.919C85.2095 183.905 85.0634 183.744 85.078 183.452L85.1657 181.771C85.1803 181.479 85.341 181.333 85.6332 181.347L95.2467 181.844C95.5535 181.859 95.8019 181.961 96.0064 182.137C96.1963 182.312 96.284 182.59 96.2548 182.955C96.1963 183.7 96.1379 184.402 96.0794 185.059C96.021 185.702 95.9333 186.389 95.8165 187.105C95.7872 187.266 95.7288 187.397 95.6412 187.485C95.5535 187.573 95.422 187.616 95.2613 187.602L93.4935 187.514C93.3328 187.514 93.2013 187.456 93.1136 187.353C93.0259 187.251 92.9821 187.12 92.9967 186.959L93.1428 184.182L85.531 183.905L85.5017 183.919ZM91.0682 180.631C90.7175 180.617 90.5422 180.427 90.5714 180.076L90.6591 177.154L89.4172 177.095C89.2273 177.095 89.0812 177.022 88.9789 176.905C88.8767 176.788 88.8182 176.642 88.8328 176.452L88.8913 175.21C88.8913 175.02 88.9643 174.874 89.0812 174.772C89.1981 174.669 89.3588 174.611 89.5341 174.625L90.7175 174.684L90.8052 172.068C90.8198 171.717 91.0097 171.542 91.3458 171.571L93.2305 171.674C93.5811 171.688 93.7418 171.878 93.7126 172.229L93.0844 180.222C93.0698 180.573 92.8798 180.748 92.5292 180.719L91.0682 180.646V180.631ZM94.5162 180.807C94.1655 180.792 93.9902 180.602 94.0194 180.251L94.4431 172.068C94.4577 171.717 94.6477 171.542 94.9837 171.571L96.8684 171.674C97.219 171.688 97.3798 171.878 97.3505 172.229L96.5324 180.383C96.5178 180.734 96.3278 180.909 95.9772 180.88L94.5162 180.807Z" fill="#00A0CA"/>
<path d="M99.1475 185.644C98.9868 185.658 98.8553 185.629 98.7531 185.527C98.6508 185.425 98.607 185.308 98.5923 185.132L98.5193 183.686C98.5193 183.525 98.5485 183.393 98.6362 183.291C98.7238 183.189 98.8553 183.145 99.016 183.13L111.128 182.458C111.289 182.458 111.42 182.487 111.522 182.575C111.625 182.663 111.668 182.794 111.683 182.955L111.741 184.212C111.741 184.372 111.712 184.504 111.625 184.592C111.537 184.679 111.405 184.738 111.245 184.767L99.1475 185.629V185.644ZM100.828 181.786C100.01 181.83 99.5712 181.45 99.5274 180.631L99.0599 173.398C99.0306 172.989 99.1183 172.667 99.3521 172.448C99.5712 172.229 99.878 172.112 100.229 172.097L109.214 171.644C109.404 171.644 109.55 171.688 109.667 171.791C109.784 171.893 109.842 172.039 109.857 172.229L109.93 173.573C109.93 173.763 109.886 173.909 109.784 174.026C109.681 174.143 109.535 174.202 109.345 174.216L102.186 174.596L102.245 175.619L109.214 175.225C109.375 175.225 109.506 175.269 109.594 175.371C109.681 175.473 109.725 175.59 109.74 175.736L109.813 177.066C109.813 177.241 109.784 177.373 109.681 177.475C109.579 177.563 109.448 177.621 109.258 177.636L102.376 178.03L102.435 179.141L109.725 178.776C109.915 178.746 110.047 178.746 110.149 178.776C110.237 178.819 110.295 178.922 110.339 179.082L110.412 180.368C110.485 180.719 110.383 180.938 110.076 181.011L100.842 181.801L100.828 181.786Z" fill="#00A0CA"/>
<path d="M50.379 169.818L50.1745 168.824C50.043 168.269 49.7362 167.801 49.3125 167.494C49.3709 167.158 49.3709 166.808 49.3125 166.442L48.6404 162.935C48.5966 162.701 48.5381 162.497 48.4505 162.307C48.7865 162.131 49.0641 161.883 49.2832 161.561C49.6193 161.065 49.7216 160.451 49.5755 159.823L49.254 158.449C49.0787 157.689 48.6696 157.265 48.3774 156.988C48.1144 156.739 47.8661 156.549 47.6615 156.418C47.5593 156.359 47.4424 156.315 47.3401 156.272C47.3401 156.009 47.3255 155.745 47.2378 155.468L46.858 154.299C46.668 153.729 46.332 153.276 45.9668 152.911C45.2509 152.195 44.3596 151.829 43.2785 152.165C42.5042 152.428 39.5675 153.364 37.4052 154.007C37.2445 153.407 36.8793 152.881 36.514 152.516C35.8858 151.888 35.1261 151.581 34.1472 151.8L31.4735 152.414C30.67 152.604 30.2463 153.057 30.0417 153.407C29.8372 153.744 29.6327 154.313 29.808 155.103L30.8161 159.077C30.8745 159.311 30.9622 159.53 31.0498 159.735C30.9037 159.808 30.7869 159.91 30.67 160.012C30.6261 159.998 30.5969 159.969 30.5531 159.939C30.071 159.706 29.545 159.662 29.0044 159.793L28.2155 157.236C28.0109 156.564 27.6457 156.184 27.3681 155.906C27.0613 155.599 26.7545 155.38 26.5061 155.263C26.1408 155.073 25.5418 154.913 24.7529 155.176L22.2838 156.023C21.5241 156.286 21.1588 156.768 20.9835 157.134C20.8228 157.455 20.6913 157.937 20.8228 158.566C20.8082 158.566 20.7789 158.566 20.7643 158.58L19.8731 158.887C19.727 158.697 19.5225 158.478 19.391 158.347C19.2595 158.215 18.9819 157.967 18.8212 157.835C18.4852 157.587 17.8861 157.294 17.0534 157.441L14.6427 157.791C13.7807 157.923 13.3132 158.376 13.0648 158.727C12.8164 159.077 12.5681 159.662 12.7288 160.539L12.8895 161.328L11.2239 161.898C10.4642 162.161 10.0843 162.657 9.90902 163.023C9.7337 163.403 9.55838 164.002 9.82136 164.762L10.4204 166.501C10.5957 166.998 10.8441 167.436 11.1947 167.772C11.4723 168.05 11.8083 168.24 12.159 168.415C12.3197 168.488 12.495 168.532 12.6703 168.576C12.3197 169.92 12.3343 171.323 12.8018 172.667C13.1963 173.822 13.8245 174.874 14.6719 175.721C15.3294 176.379 16.1475 176.905 16.9949 177.329C17.9738 177.811 19.0257 178.045 20.0923 178.045C20.8666 178.045 21.6409 177.913 22.4007 177.65C24.1685 177.037 25.6003 175.78 26.433 174.114C26.5499 174.231 26.6814 174.392 26.7983 174.494C27.3097 174.991 27.8064 175.356 28.5077 175.356C28.7707 175.356 29.0483 175.312 29.3258 175.21L31.3128 174.523C32.5547 174.085 33.1391 172.916 32.7154 171.703L31.1521 166.661L31.4589 166.544C31.795 166.428 32.0872 166.252 32.3209 166.033C32.3501 166.033 32.3647 166.033 32.394 166.048L32.5839 166.895C32.7008 167.421 32.993 167.874 33.4021 168.196C33.3436 168.561 33.3582 168.926 33.4605 169.292L34.3371 172.58C34.5124 173.179 34.8046 173.676 35.2283 174.099C35.4621 174.333 35.7689 174.523 36.0465 174.699C36.4556 174.962 36.9085 175.093 37.3906 175.093C37.5952 175.093 37.7997 175.064 38.0043 175.02L48.6696 172.404C49.2686 172.258 49.78 171.907 50.1014 171.411C50.4082 170.914 50.5105 170.3 50.3644 169.73L50.379 169.818Z" fill="#C13925"/>
<path d="M89.5488 160.772C89.9725 160.349 90.2062 159.779 90.1916 159.121L90.1624 157.601C90.1624 156.973 89.7679 156.345 89.505 156.009C89.3735 155.848 89.0521 155.541 88.8913 155.395C88.8329 155.336 88.716 155.249 88.6138 155.176C88.7745 154.81 88.8475 154.401 88.8037 153.963L88.6722 152.75C88.5845 151.902 87.781 151.04 87.7225 150.982C87.5618 150.821 87.3865 150.646 87.255 150.529C86.919 150.251 86.3492 149.93 85.4726 150.032C84.669 150.119 81.7178 150.426 79.497 150.602L79.4678 149.199C79.4678 148.395 79.1172 147.928 78.8396 147.606C78.6935 147.445 78.4013 147.138 78.226 146.992C77.8899 146.715 77.3786 146.379 76.5896 146.364L73.8429 146.408C73.0394 146.422 72.528 146.773 72.2504 147.065C71.9728 147.358 71.6368 147.884 71.6514 148.702L71.7975 153.203C71.6952 153.057 71.5638 152.925 71.4177 152.808C70.994 152.472 70.4826 152.311 69.9128 152.311L69.7375 149.973C69.6791 149.14 69.343 148.658 69.0362 148.351C68.8901 148.191 68.4956 147.898 68.3641 147.781C68.0427 147.518 67.4875 147.226 66.6694 147.299L64.0688 147.577C63.2652 147.665 62.7977 148.059 62.5493 148.366C62.2863 148.687 62.0087 149.228 62.0964 150.046L63.1922 160.48C63.1922 160.48 63.0461 160.495 62.973 160.509L61.7896 160.714C61.0445 160.845 60.1679 160.992 59.3205 161.152L58.3416 151.858C58.254 151.055 57.9033 150.587 57.6111 150.28C57.465 150.119 57.0851 149.827 56.9683 149.725C56.6468 149.462 56.0917 149.17 55.2881 149.243L52.556 149.535C51.7525 149.623 51.2849 150.017 51.0366 150.324C50.7736 150.646 50.496 151.186 50.5836 152.005L52.1177 165.77C52.2346 166.647 52.5706 167.392 52.9359 167.801C53.082 167.962 53.4326 168.269 53.6079 168.4C53.9732 168.678 54.7475 168.912 55.4634 168.912C55.6095 168.912 55.7702 168.912 55.9163 168.883C56.1793 168.853 56.9537 168.766 64.4486 166.968L64.697 166.91C64.697 166.91 64.7116 166.91 64.7262 166.91C65.1645 167.524 65.895 167.845 66.7716 167.757L68.8609 167.538C70.1758 167.392 71.0086 166.384 70.8625 165.112L70.4534 159.706C70.5557 160.086 70.8186 160.495 71.0086 160.714C71.1547 160.875 71.4615 161.182 71.6222 161.328C71.7537 161.445 71.9874 161.635 72.192 161.737L72.3527 165.478C72.3965 166.369 72.6887 167.1 73.2439 167.655C73.3462 167.757 73.4631 167.845 73.5946 167.947C73.6822 168.05 73.7553 168.167 73.8575 168.269C74.2374 168.649 74.9095 169.087 75.9906 169.087C76.0491 169.087 76.1221 169.087 76.1805 169.087L86.9774 168.152C87.6349 168.079 88.1901 167.772 88.5407 167.261C88.7598 166.954 88.9936 166.428 88.9206 165.653L88.7452 164.031C88.6722 163.33 88.3215 162.76 87.8832 162.321C87.3281 161.766 86.6122 161.386 85.7356 161.474L88.1024 161.386C88.6722 161.342 89.1689 161.123 89.5488 160.743V160.772Z" fill="#C13925"/>
<path d="M154.607 157.382C154.447 157.119 154.257 156.841 154.052 156.637C153.628 156.213 153.117 155.906 152.518 155.877C150.356 155.789 148.427 156.359 146.82 157.455C146.659 157.324 146.484 157.192 146.294 157.09L144.147 155.994C143.548 155.687 143.022 155.658 142.627 155.716C142.13 154.46 141.371 153.334 140.304 152.355C139.88 151.888 139.413 151.435 138.872 151.04C138.376 150.675 137.733 150.587 137.148 150.806C136.564 151.026 136.14 151.508 136.009 152.107C135.629 153.86 135.717 155.541 136.213 157.075C136.009 157.28 135.804 157.572 135.673 157.952L135.044 159.735C134.84 160.334 134.855 160.948 135.103 161.459C135.249 161.766 135.468 162.029 135.746 162.248C135.541 162.248 135.074 162.234 135.044 162.248C135.015 161.883 134.913 161.547 134.723 161.225C134.548 160.948 134.314 160.641 134.08 160.407C133.817 160.144 133.554 159.969 133.218 159.793L133.963 157.046C134.182 156.242 133.978 155.658 133.773 155.293C133.642 155.088 133.408 154.796 133.16 154.518C132.868 154.226 132.502 153.846 131.728 153.656L129.186 153.042C128.382 152.852 127.798 153.071 127.447 153.291C127.33 153.364 127.199 153.466 127.067 153.597C126.658 153.101 126.088 152.75 125.416 152.589L116.986 150.573C116.154 150.383 115.394 150.646 114.897 151.215C114.824 151.026 114.357 150.324 114.123 150.061C113.831 149.74 113.319 149.374 112.501 149.272L109.9 148.95C109.199 148.863 108.571 149.067 108.118 149.477C107.797 149.213 107.402 149.053 106.964 149.009L97.1604 147.767C96.3715 147.665 95.8163 147.942 95.4657 148.22C95.0128 148.585 94.7206 149.126 94.6475 149.725L94.3845 151.902C94.3115 152.516 94.4576 153.086 94.7936 153.539C94.9397 153.744 95.115 153.904 95.305 154.036L94.6475 160.378C94.3553 160.466 94.1069 160.612 93.9316 160.743C93.4787 161.108 93.1719 161.649 93.0988 162.263L92.8359 164.44C92.7336 165.229 92.982 165.858 93.2303 166.238C93.3618 166.428 93.6686 166.778 93.844 166.924C94.1654 167.202 94.6183 167.451 95.4072 167.553C96.4007 167.67 97.3942 167.772 98.4023 167.845C99.4104 167.918 100.389 167.977 101.339 168.02C102.303 168.064 103.224 168.064 104.071 168.05C104.86 168.035 105.576 167.977 106.219 167.904C106.306 167.991 107.11 168.941 108.147 169.116L110.236 169.365C110.353 169.379 110.456 169.379 110.573 169.379C111.201 169.379 111.654 169.146 111.931 168.926C112.253 168.678 112.662 168.21 112.749 167.451L113.509 162.526C113.509 162.526 113.626 162.628 113.655 162.672C113.947 162.994 114.342 163.432 115.145 163.578L116.11 163.753C115.686 164.25 115.204 164.806 114.839 165.229L114.444 165.682C114.006 166.194 113.816 166.822 113.889 167.421C113.962 168.006 114.269 168.517 114.736 168.897C115.248 169.306 116.241 170.169 116.753 170.563C117.264 170.958 117.848 171.104 118.433 171.031C118.973 170.972 119.47 170.709 119.806 170.373C120.756 169.526 122.451 167.626 123.809 165.872L122.947 169.496C122.757 170.285 122.962 170.841 123.181 171.221C123.298 171.425 123.576 171.834 123.751 172.01C124.028 172.317 124.452 172.638 125.226 172.814L127.272 173.31C127.476 173.354 127.681 173.383 127.885 173.383C128.908 173.383 129.726 172.74 129.975 171.688L130.296 170.519C130.471 170.812 130.618 171.06 130.837 171.294C131.202 171.659 131.655 171.981 132.122 172.112L132.458 172.229L132.195 173.047C131.918 173.822 132.079 174.421 132.254 174.786C132.371 175.049 132.561 175.415 132.897 175.751C133.16 176.028 133.554 176.306 134.182 176.525L136.155 177.227C136.798 177.46 137.426 177.387 137.952 177.095C138.098 177.27 138.259 177.475 138.434 177.65C138.77 177.972 139.121 178.279 139.632 178.469L141.619 179.17C141.897 179.272 142.16 179.316 142.423 179.316C143.299 179.316 144.059 178.79 144.483 177.826L145.009 176.423L146.177 176.803C146.733 176.949 147.273 176.92 147.755 176.715C148.296 176.481 148.719 176.014 148.939 175.4L149.406 174.07C149.669 173.325 149.523 172.711 149.333 172.331C149.172 172.01 148.939 171.732 148.646 171.513L149.655 170.402C150.122 169.92 150.327 169.292 150.224 168.62C150.166 168.21 149.961 167.64 149.26 167.085C149.231 167.071 149.216 167.041 149.187 167.027C149.129 166.939 149.041 166.851 148.968 166.764C149.581 166.34 150.137 165.872 150.633 165.332C151.203 164.659 151.466 163.87 151.379 163.037C151.379 162.979 151.349 162.935 151.335 162.891C152.708 162.014 153.848 160.743 154.651 159.136C154.929 158.58 154.9 157.937 154.593 157.397L154.607 157.382Z" fill="#F39800"/>
<path d="M12.7725 166.398C12.5826 166.457 12.4219 166.457 12.2758 166.398C12.1297 166.325 12.0274 166.194 11.9544 166.004L11.3554 164.265C11.2969 164.075 11.2969 163.914 11.3554 163.768C11.4138 163.622 11.5599 163.52 11.7498 163.447L14.7449 162.409L14.292 160.232C14.2043 159.764 14.4089 159.486 14.891 159.413L17.2871 159.063C17.7692 158.99 18.0468 159.194 18.1198 159.691L18.3098 161.167L21.2902 160.144C21.6263 160.027 21.86 160.144 21.9769 160.48L22.5759 162.204C22.6928 162.541 22.5759 162.774 22.2399 162.891L12.7725 166.428V166.398ZM28.2008 173.135C27.7917 173.281 27.5287 173.135 27.3826 172.74L22.4444 158.39C22.2983 157.981 22.4444 157.718 22.8243 157.572L25.2934 156.725C25.7025 156.578 25.9655 156.725 26.097 157.134L27.6018 162.014L29.2966 161.401C29.5157 161.328 29.7056 161.328 29.881 161.415C30.0563 161.503 30.1732 161.649 30.2462 161.868L30.816 163.534C30.8891 163.753 30.8891 163.943 30.8014 164.119C30.7137 164.294 30.5676 164.411 30.3485 164.484L28.5807 165.142L30.5969 171.644C30.743 172.054 30.5969 172.317 30.2024 172.463L28.2154 173.15L28.2008 173.135Z" fill="#ED7969"/>
<path d="M19.4932 175.853C22.511 175.853 24.9574 173.406 24.9574 170.388C24.9574 167.369 22.511 164.923 19.4932 164.923C16.4754 164.923 14.0291 167.369 14.0291 170.388C14.0291 173.406 16.4754 175.853 19.4932 175.853Z" fill="#C13925"/>
<path d="M19.4932 172.331C20.5664 172.331 21.4363 171.461 21.4363 170.388C21.4363 169.314 20.5664 168.444 19.4932 168.444C18.42 168.444 17.55 169.314 17.55 170.388C17.55 171.461 18.42 172.331 19.4932 172.331Z" fill="white"/>
<path d="M16.7319 172.01L14.5696 172.755C15.753 175.225 18.6312 176.467 21.2756 175.561C23.92 174.655 25.4249 171.893 24.8405 169.219L22.6782 169.964C22.8827 171.44 22.0061 172.916 20.5451 173.413C19.0841 173.924 17.4916 173.296 16.7319 172.01Z" fill="white"/>
<path d="M17.7107 165.215C15.0663 166.121 13.5614 168.883 14.1458 171.557L16.3081 170.812C16.1036 169.336 16.9802 167.86 18.4412 167.363C19.9022 166.851 21.4947 167.48 22.2544 168.766L24.4167 168.02C23.2333 165.551 20.3551 164.309 17.7107 165.215Z" fill="#ED7969"/>
<path d="M32.6569 163.973C32.467 164.031 32.3063 164.016 32.1602 163.929C32.0141 163.841 31.9264 163.695 31.8826 163.49L31.5173 161.883C31.4735 161.693 31.4881 161.518 31.5758 161.386C31.6634 161.255 31.7949 161.152 31.9995 161.109L46.3028 157.718C46.4927 157.674 46.668 157.689 46.7995 157.777C46.931 157.864 47.0333 157.996 47.0771 158.201L47.3985 159.574C47.4424 159.764 47.4278 159.925 47.3401 160.056C47.2524 160.188 47.1063 160.276 46.9164 160.334L32.6569 163.958V163.973ZM31.3712 154.766C31.269 154.343 31.4297 154.094 31.8388 154.007L34.5124 153.393C34.9215 153.305 35.1699 153.466 35.2575 153.875L35.7835 156.155C37.4198 155.775 42.7963 154.05 43.7898 153.714C44.2574 153.568 44.5642 153.714 44.7103 154.197L45.0901 155.366C45.2362 155.804 45.0609 156.111 44.5788 156.272C43.9505 156.505 34.9069 159.399 33.8988 159.633C33.4459 159.735 33.1098 159.72 32.8761 159.574C32.6423 159.428 32.467 159.136 32.3501 158.697L31.3566 154.766H31.3712ZM37.0546 172.93C36.777 172.989 36.5286 172.96 36.3241 172.828C36.1195 172.697 35.9734 172.492 35.9004 172.214L35.0384 168.956C34.9653 168.678 34.9946 168.444 35.1407 168.225C35.2868 168.02 35.4913 167.874 35.7689 167.801L43.1324 165.858L42.9717 165.083L34.9361 167.085C34.7462 167.129 34.5709 167.1 34.4394 167.012C34.3079 166.924 34.2056 166.778 34.1618 166.603L33.8842 165.376C33.7819 164.952 33.9426 164.703 34.3663 164.601L45.2947 161.898C45.6015 161.81 45.8499 161.839 46.0544 161.956C46.2589 162.073 46.3904 162.307 46.4489 162.614L47.1355 166.135C47.1794 166.413 47.1355 166.661 47.0187 166.866C46.8872 167.071 46.6826 167.217 46.4197 167.29L39.1292 169.131L39.3045 169.862L47.2524 168.094C47.4424 168.05 47.6177 168.064 47.7492 168.152C47.8807 168.24 47.9829 168.371 48.0268 168.576L48.2313 169.54C48.2751 169.73 48.2605 169.906 48.1729 170.037C48.0852 170.169 47.9391 170.271 47.7492 170.315L37.0838 172.93H37.0546Z" fill="#ED7969"/>
<path d="M65.9973 165.595C65.5736 165.639 65.3398 165.449 65.296 165.025L63.7035 149.93C63.6596 149.506 63.8496 149.272 64.2587 149.228L66.8593 148.95C67.2829 148.907 67.5167 149.097 67.5459 149.52L67.882 154.182L69.8689 153.948C70.1027 153.919 70.278 153.977 70.4387 154.094C70.5848 154.211 70.6725 154.386 70.7017 154.62L70.8916 156.374C70.9209 156.608 70.8624 156.783 70.7455 156.944C70.6287 157.09 70.4533 157.178 70.2196 157.207L68.1303 157.47L68.6709 164.674C68.7147 165.098 68.5248 165.332 68.1011 165.375L66.0119 165.595H65.9973ZM52.1761 151.888C52.1323 151.464 52.3222 151.23 52.7313 151.186L55.4634 150.894C55.8725 150.85 56.1062 151.04 56.15 151.464L57.3773 163.198C59.0575 162.833 62.1402 162.336 63.2652 162.131C63.7473 162.044 64.0249 162.234 64.1272 162.731L64.3609 163.929C64.4486 164.382 64.244 164.659 63.7327 164.776C63.0752 164.937 56.1354 166.603 55.1127 166.734C54.6598 166.778 54.3238 166.734 54.1192 166.545C53.9147 166.355 53.7686 166.062 53.7102 165.609L52.1761 151.888Z" fill="#ED7969"/>
<path d="M72.645 159.779C72.4404 159.793 72.2797 159.749 72.1774 159.633C72.0752 159.516 72.0021 159.355 72.0021 159.15L71.9729 157.397C71.9729 157.192 72.0313 157.046 72.1336 156.929C72.2505 156.812 72.3966 156.754 72.6011 156.754L87.2989 156.418C87.5034 156.418 87.6495 156.462 87.781 156.578C87.9125 156.695 87.9564 156.841 87.9564 157.046L87.9856 158.566C87.9856 158.77 87.9417 158.917 87.8249 159.033C87.708 159.136 87.5619 159.209 87.3573 159.223L72.6596 159.808L72.645 159.779ZM73.2732 148.702C73.2732 148.278 73.4631 148.059 73.8868 148.044L76.6335 148.001C77.0426 148.001 77.2618 148.205 77.2618 148.629L77.3202 152.355C79.0004 152.326 84.6106 151.756 85.6626 151.639C86.1447 151.595 86.4077 151.815 86.4661 152.311L86.5976 153.524C86.6414 153.977 86.4077 154.24 85.9109 154.313C85.2389 154.416 75.8008 155.351 74.7634 155.38C74.3105 155.38 73.9745 155.293 73.7846 155.103C73.5946 154.913 73.4777 154.591 73.4631 154.138L73.2878 148.687L73.2732 148.702ZM75.4939 166.895C75.0118 166.924 74.6319 166.808 74.3836 166.545C74.1352 166.281 73.9891 165.916 73.9745 165.434L73.7992 161.298C73.7553 160.875 73.9599 160.655 74.4128 160.641L76.8965 160.553C77.3056 160.553 77.5247 160.758 77.5247 161.182L77.5978 163.753L85.8671 163.125C86.2762 163.081 86.51 163.242 86.5392 163.607L86.7145 165.229C86.7583 165.668 86.5976 165.916 86.2031 165.945L75.5085 166.866L75.4939 166.895Z" fill="#ED7969"/>
<path d="M94.7353 162.497C94.7645 162.292 94.8375 162.146 94.969 162.044C95.1005 161.941 95.2612 161.912 95.4658 161.927C95.6265 161.941 95.9771 162.015 96.1378 162.029L97.0875 152.896L96.5761 152.838C96.3716 152.838 96.2255 152.75 96.1232 152.618C96.0209 152.487 95.9917 152.311 96.0063 152.121L96.2693 149.944C96.2985 149.74 96.3716 149.593 96.5031 149.491C96.6346 149.389 96.7953 149.36 96.9998 149.374L106.803 150.616C107.008 150.646 107.154 150.719 107.256 150.85C107.358 150.982 107.388 151.142 107.373 151.347L107.139 153.276C107.11 153.481 107.037 153.627 106.905 153.714C106.774 153.802 106.613 153.846 106.409 153.831L105.854 153.787L104.612 162.701C104.816 162.701 105.401 162.672 105.605 162.672C105.839 162.672 106 162.701 106.102 162.774C106.204 162.847 106.248 162.979 106.263 163.184V164.981C106.277 165.405 106.102 165.639 105.722 165.668C105.065 165.755 104.319 165.814 103.472 165.829C102.625 165.843 101.748 165.829 100.828 165.799C99.9072 165.77 98.943 165.712 97.9641 165.639C96.9852 165.565 96.0063 165.463 95.0421 165.346C94.8375 165.317 94.6914 165.244 94.5892 165.112C94.4869 164.981 94.4577 164.82 94.4723 164.616L94.7353 162.438V162.497ZM99.4105 162.409C99.6442 162.438 100.112 162.482 100.36 162.497L101.31 162.57L102.435 153.466L100.55 153.276L99.4251 162.409H99.4105ZM107.753 166.954C107.329 166.895 107.139 166.661 107.198 166.238L109.053 151.172C109.112 150.748 109.331 150.558 109.754 150.602L112.355 150.923C112.779 150.982 112.954 151.215 112.896 151.639L110.573 166.647C110.514 167.071 110.28 167.261 109.857 167.202L107.767 166.939L107.753 166.954Z" fill="#FFE100"/>
<path d="M115.745 167.655C115.613 167.553 115.526 167.421 115.511 167.261C115.496 167.1 115.555 166.939 115.701 166.764C116.168 166.208 117.366 164.82 117.951 164.119C118.301 163.695 119.061 162.877 119.441 162.248L114.839 161.43C114.401 161.357 114.225 161.094 114.298 160.641L114.664 158.829C114.693 158.654 114.766 158.522 114.897 158.434C115.029 158.347 115.19 158.317 115.394 158.347L120.858 159.457C121.004 159.107 121.413 158.303 121.53 157.952C121.647 157.601 121.749 157.265 121.837 156.915L115.862 155.526C115.511 155.439 115.379 155.234 115.467 154.883L116.022 152.589C116.11 152.238 116.314 152.107 116.665 152.195L125.081 154.211C125.446 154.299 125.709 154.474 125.899 154.723C126.089 154.971 126.132 155.322 126.03 155.76L125.928 156.184C125.417 158.303 124.613 160.276 123.517 162.117C122.407 163.958 119.441 167.451 118.17 168.59C118.009 168.751 117.849 168.839 117.673 168.853C117.498 168.883 117.308 168.824 117.133 168.693L115.745 167.655ZM125.022 170.665C124.613 170.563 124.452 170.3 124.555 169.891L128.105 155.132C128.207 154.708 128.455 154.547 128.865 154.65L131.407 155.263C131.83 155.366 131.977 155.614 131.86 156.038L130.574 160.758L132.313 161.152C132.532 161.211 132.692 161.313 132.795 161.474C132.897 161.635 132.926 161.825 132.868 162.058L132.459 163.768C132.4 163.987 132.298 164.148 132.137 164.25C131.977 164.353 131.787 164.382 131.553 164.323L129.712 163.929L127.871 170.695C127.769 171.118 127.506 171.265 127.097 171.177L125.051 170.68L125.022 170.665Z" fill="#FFE100"/>
<path d="M134.124 174.406C133.715 174.26 133.583 173.997 133.73 173.588L134.635 170.855L132.049 169.993C131.859 169.935 131.728 169.832 131.655 169.686C131.582 169.54 131.582 169.365 131.655 169.175L132.21 167.611C132.283 167.421 132.385 167.29 132.532 167.231C132.678 167.173 132.838 167.158 133.028 167.231L146.908 172.098C147.098 172.171 147.229 172.273 147.302 172.419C147.375 172.565 147.375 172.726 147.302 172.916L146.835 174.246C146.762 174.436 146.659 174.567 146.513 174.626C146.367 174.684 146.207 174.699 146.002 174.626L143.431 173.778L142.379 176.628C142.203 177.022 141.94 177.154 141.561 177.022L139.574 176.321C139.164 176.175 139.033 175.912 139.179 175.502L140.114 172.667L137.937 171.937L136.915 174.699C136.739 175.093 136.476 175.225 136.096 175.093L134.109 174.392L134.124 174.406ZM134.416 164.586C134.416 164.338 134.475 164.163 134.606 164.031C134.738 163.9 134.913 163.841 135.132 163.841C135.804 163.87 136.491 163.885 137.207 163.885C137.923 163.885 138.624 163.87 139.325 163.812C140.026 163.768 140.713 163.68 141.371 163.578C142.043 163.476 142.671 163.33 143.27 163.14L136.973 161.094C136.783 161.021 136.652 160.919 136.593 160.772C136.52 160.626 136.52 160.466 136.593 160.276L137.221 158.493C137.294 158.303 137.397 158.171 137.543 158.098C137.689 158.025 137.85 158.025 138.04 158.098L141.721 159.399L142.452 157.718C142.656 157.28 142.978 157.163 143.431 157.411L145.593 158.522C146.017 158.741 146.119 159.063 145.914 159.501L145.301 160.656L148.471 161.781C148.924 161.941 149.172 162.219 149.216 162.584C149.26 162.964 149.129 163.315 148.851 163.666C148.457 164.104 147.974 164.499 147.434 164.864C146.893 165.229 146.28 165.551 145.608 165.829C146.294 166.574 147.025 167.217 147.784 167.757C147.96 167.904 148.062 168.05 148.091 168.225C148.12 168.386 148.062 168.532 147.945 168.663L146.601 170.139C146.484 170.271 146.338 170.329 146.163 170.344C145.987 170.359 145.841 170.315 145.71 170.212C145.111 169.745 144.512 169.219 143.942 168.649C143.372 168.079 142.832 167.436 142.32 166.72C141.254 166.91 140.129 166.998 138.96 167.027C137.791 167.056 136.593 166.968 135.395 166.808C135.132 166.778 134.913 166.72 134.738 166.632C134.562 166.545 134.46 166.384 134.46 166.135L134.431 164.601L134.416 164.586Z" fill="#FFE100"/>
<path d="M145.199 161.751C146.689 158.756 149.333 157.353 152.445 157.484C152.591 157.484 152.694 157.66 152.62 157.791C151.13 160.787 148.5 162.19 145.388 162.058C145.242 162.058 145.14 161.883 145.213 161.751H145.199Z" fill="#FFE100"/>
<path d="M150.78 160.246C151.51 159.603 152.124 158.785 152.62 157.791C152.694 157.66 152.591 157.499 152.445 157.484C150.926 157.426 149.509 157.718 148.296 158.405C150.224 158.61 150.677 159.779 150.794 160.246H150.78Z" fill="#3E3A39"/>
<path d="M140.538 160.334C137.85 158.347 136.929 155.497 137.601 152.458C137.631 152.311 137.806 152.253 137.938 152.341C140.626 154.328 141.546 157.163 140.889 160.217C140.86 160.363 140.67 160.436 140.553 160.349L140.538 160.334Z" fill="#FFE100"/>
<path d="M140.027 154.576C139.515 153.758 138.814 152.998 137.923 152.341C137.806 152.253 137.63 152.311 137.587 152.458C137.251 153.948 137.309 155.395 137.777 156.71C138.317 154.854 139.544 154.606 140.027 154.576Z" fill="#3E3A39"/>
</g>
<defs>
<linearGradient id="paint0_linear_1_1315" x1="82.5503" y1="161.81" x2="82.5503" y2="41.954" gradientUnits="userSpaceOnUse">
<stop stop-color="#A0D8EF"/>
<stop offset="0.12" stop-color="#97D4EC"/>
<stop offset="0.31" stop-color="#7ECAE4"/>
<stop offset="0.56" stop-color="#56BAD8"/>
<stop offset="0.85" stop-color="#20A4C7"/>
<stop offset="1" stop-color="#0097BE"/>
</linearGradient>
<clipPath id="clip0_1_1315">
<rect width="166" height="199" fill="white" transform="translate(0.5)"/>
</clipPath>
</defs>
</svg>
